
<svg xmlns="http://www.w3.org/2000/svg" version="1.1" xmlns:xlink="http://www.w3.org/1999/xlink" xmlns:svgjs="http://svgjs.dev/svgjs" width="2000" height="1500" viewBox="0 0 2000 1500"><rect width="2000" height="1500" fill="#0080ff"></rect><g transform="matrix(0.75,0,0,0.75,250.85809051166098,468.8921571419321)"><svg viewBox="0 0 223 84" data-background-color="#0080ff" preserveAspectRatio="xMidYMid meet" height="753" width="2000" xmlns="http://www.w3.org/2000/svg" xmlns:xlink="http://www.w3.org/1999/xlink"><g id="tight-bounds" transform="matrix(1,0,0,1,-0.12756945606693648,-0.1884749002608146)"><svg viewBox="0 0 223.25513891213387 84.37694980052166" height="84.37694980052166" width="223.25513891213387"><g><svg viewBox="0 0 223.25513891213387 84.37694980052166" height="84.37694980052166" width="223.25513891213387"><g><svg viewBox="0 0 223.25513891213387 84.37694980052166" height="84.37694980052166" width="223.25513891213387"><g id="textblocktransform"><svg viewBox="0 0 223.25513891213387 84.37694980052166" height="84.37694980052166" width="223.25513891213387" id="textblock"><g><svg viewBox="0 0 223.25513891213387 59.13789999999999" height="59.13789999999999" width="223.25513891213387"><g><svg><g></g><g></g></svg></g><g><svg><g><svg></svg></g><g></g></svg></g><g id="text-0"><svg viewBox="0 0 223.25513891213387 59.13789999999999" height="59.13789999999999" width="223.25513891213387"><g transform="matrix(1,0,0,1,0,0)"><svg width="149.9077" viewBox="2.7 -35.65 92.64 36.55" height="59.13789999999999" data-palette-color="#ffffff"><path d="M30.15-34.75L30.15 0 18.5 0 9.7-26.15 9.85-25.1Q10.35-21.65 10.63-18.63 10.9-15.6 10.9-11.75L10.9-11.75 10.9 0 2.7 0 2.7-34.75 14.1-34.75 23.2-8.5Q22.6-12.25 22.28-15.25 21.95-18.25 21.95-22.15L21.95-22.15 21.95-34.75 30.15-34.75ZM50.1-35.65Q57.65-35.65 61.85-30.85 66.05-26.05 66.05-17.4L66.05-17.4Q66.05-11.75 64.17-7.63 62.3-3.5 58.7-1.3 55.1 0.9 50.1 0.9L50.1 0.9Q42.55 0.9 38.37-3.9 34.2-8.7 34.2-17.4L34.2-17.4Q34.2-23.05 36.07-27.15 37.95-31.25 41.52-33.45 45.1-35.65 50.1-35.65L50.1-35.65ZM50.1-29Q46.85-29 45.32-26.3 43.8-23.6 43.8-17.4L43.8-17.4Q43.8-11.2 45.35-8.47 46.9-5.75 50.1-5.75L50.1-5.75Q53.4-5.75 54.9-8.45 56.4-11.15 56.4-17.4L56.4-17.4Q56.4-23.6 54.9-26.3 53.4-29 50.1-29L50.1-29ZM82.05-35.65Q86-35.65 89.02-34.5 92.05-33.35 94.44-31.05L94.44-31.05 90.3-26.15Q86.69-29 82.75-29L82.75-29Q80.69-29 79.62-28.23 78.55-27.45 78.55-26.05L78.55-26.05Q78.55-25.05 79.09-24.4 79.64-23.75 80.94-23.15 82.25-22.55 85.05-21.65L85.05-21.65Q90.39-19.95 92.87-17.38 95.34-14.8 95.34-10.25L95.34-10.25Q95.34-6.95 93.64-4.42 91.94-1.9 88.72-0.5 85.5 0.9 81.14 0.9L81.14 0.9Q72.84 0.9 67.59-4.15L67.59-4.15 72.14-9.2Q76.3-5.8 80.8-5.8L80.8-5.8Q83.14-5.8 84.44-6.83 85.75-7.85 85.75-9.55L85.75-9.55Q85.75-10.75 85.25-11.53 84.75-12.3 83.47-12.93 82.19-13.55 79.75-14.3L79.75-14.3Q73.84-16.15 71.44-18.75 69.05-21.35 69.05-25.3L69.05-25.3Q69.05-28.4 70.72-30.75 72.39-33.1 75.37-34.38 78.34-35.65 82.05-35.65L82.05-35.65Z" opacity="1" transform="matrix(1,0,0,1,0,0)" fill="#ffffff" class="wordmark-text-0" data-fill-palette-color="primary"></path></svg></g><g><svg xmlns="http://www.w3.org/2000/svg" xmlns:xlink="http://www.w3.org/1999/xlink" version="1.1" x="163.8698" y="0" viewBox="1 1.1 48 47.8" style="enable-background:new 0 0 50 50;" xml:space="preserve" height="59.13789999999999" width="59.38533891213388" class="icon-cg-0" data-fill-palette-color="accent" id="cg-0"><path d="M1 1.1v47.8h48V1.1H1zM8.6 41l7.3-7.3-7.3-7.3L10 25l8.6 8.6L10 42.3 8.6 41zM29 42.6H17.3v-1.9H29V42.6z" fill="#ffffff" data-fill-palette-color="accent"></path></svg></g></svg></g></svg></g><g transform="matrix(1,0,0,1,0,73.09893888039998)"><svg viewBox="0 0 131.0730920553138 11.278010920121666" height="11.278010920121666" width="131.0730920553138"><g transform="matrix(1,0,0,1,0,0)"><svg width="131.0730920553138" viewBox="2.75 -36.2 537.04 45.900000000000006" height="11.278010920121666" data-palette-color="#ffffff"><path d="M17.9-24.5L17.9-24.5 17.9-20.05Q15.45-21.5 11.6-21.5L11.6-21.5Q9.85-21.5 8.83-20.7 7.8-19.9 7.8-18.6L7.8-18.6Q7.8-18.25 7.88-17.93 7.95-17.6 8.15-17.28 8.35-16.95 8.53-16.73 8.7-16.5 9.1-16.25 9.5-16 9.73-15.83 9.95-15.65 10.48-15.4 11-15.15 11.25-15.03 11.5-14.9 12.13-14.63 12.75-14.35 13-14.25L13-14.25Q15.95-12.95 17.63-11.33 19.3-9.7 19.3-7L19.3-7Q19.3-3.6 16.9-1.68 14.5 0.25 10.4 0.25L10.4 0.25Q5.9 0.25 2.9-1.25L2.9-1.25 2.9-5.9Q6.4-3.75 10.15-3.75L10.15-3.75Q12.1-3.75 13.18-4.55 14.25-5.35 14.25-6.65L14.25-6.65Q14.25-7.75 13.4-8.63 12.55-9.5 11.68-9.93 10.8-10.35 8.7-11.25L8.7-11.25Q2.75-13.7 2.75-18.45L2.75-18.45Q2.75-21.8 5.25-23.7 7.75-25.6 11.5-25.6L11.5-25.6Q15.6-25.6 17.9-24.5ZM36.1-3.95L36.1-3.95Q39.05-3.95 40.95-6.28 42.85-8.6 42.85-12.8L42.85-12.8Q42.85-16.75 41-19.07 39.15-21.4 36.3-21.4 33.45-21.4 31.37-19.33 29.3-17.25 29.3-12.75L29.3-12.75Q29.3-8.35 31.37-6.15 33.45-3.95 36.1-3.95ZM24.4-25.35L29.3-25.35 29.3-21.45Q31.9-25.7 37.1-25.7L37.1-25.7Q42.1-25.7 45-22.08 47.9-18.45 47.9-12.85L47.9-12.85Q47.9-7.1 44.92-3.38 41.95 0.35 37 0.35L37 0.35Q31.95 0.35 29.3-3.85L29.3-3.85 29.3 9.7 24.4 9.7 24.4-25.35ZM53.4-25.35L58.3-25.35 58.3-20.9Q60.15-25.6 64.95-25.6L64.95-25.6Q65.65-25.6 66.5-25.45L66.5-25.45 66.5-20.65Q65.45-21.1 64.15-21.1L64.15-21.1Q61.6-21.1 59.95-18.85 58.3-16.6 58.3-13.5L58.3-13.5 58.3 0 53.4 0 53.4-25.35ZM77.34-0.55L77.34-0.55 67.24-25.35 72.69-25.35 75.84-17.1 79.79-6.4Q80.24-7.9 83.39-17.1L83.39-17.1 86.24-25.35 91.44-25.35 82.29-0.7Q78.64 9.05 71.14 9.05L71.14 9.05Q69.79 9.05 68.84 8.8L68.84 8.8 68.84 4.6Q69.64 4.8 70.54 4.8L70.54 4.8Q75.39 4.8 77.34-0.55ZM100.44 0L95.54 0 95.54-35 100.44-35 100.44 0ZM115.94-25.35L106.29-13.25 116.24 0 110.39 0 100.64-13.25 110.19-25.35 115.94-25.35ZM124.04-14.5L136.29-14.5 136.29-15.4Q136.19-18.25 134.74-19.93 133.29-21.6 130.59-21.6L130.59-21.6Q128.09-21.6 126.29-19.78 124.49-17.95 124.04-14.5L124.04-14.5ZM139.44-5.75L139.44-5.75 139.44-1.35Q136.64 0.25 132.04 0.25L132.04 0.25Q126.14 0.25 122.64-3.3 119.14-6.85 119.14-12.6L119.14-12.6Q119.14-18.7 122.34-22.18 125.54-25.65 130.49-25.65L130.49-25.65Q135.34-25.65 138.19-22.63 141.04-19.6 141.04-13.9L141.04-13.9Q141.04-12.35 140.74-10.65L140.74-10.65 124.09-10.65Q124.59-7.35 126.89-5.6 129.19-3.85 132.69-3.85L132.69-3.85Q136.74-3.85 139.44-5.75ZM146.79-25.35L151.69-25.35 151.69-20.9Q153.54-25.6 158.34-25.6L158.34-25.6Q159.04-25.6 159.89-25.45L159.89-25.45 159.89-20.65Q158.84-21.1 157.54-21.1L157.54-21.1Q154.99-21.1 153.34-18.85 151.69-16.6 151.69-13.5L151.69-13.5 151.69 0 146.79 0 146.79-25.35ZM189.03-21.55L182.38-21.55 182.38-7.6Q182.38-3.95 185.88-3.95L185.88-3.95Q187.93-3.95 189.33-5.05L189.33-5.05 189.33-0.65Q187.68 0.25 185.28 0.25L185.28 0.25Q177.43 0.25 177.43-7.7L177.43-7.7 177.43-21.55 173.48-21.55 173.48-25.35 177.43-25.35 177.43-31.55 182.38-31.55 182.38-25.35 189.03-25.35 189.03-21.55ZM205.73 0L200.18 0 192.23-25.35 197.43-25.35 199.78-16.95Q200.93-12.95 201.73-9.9 202.53-6.85 202.73-5.8L202.73-5.8 202.93-4.75Q203.58-7.9 206.23-17L206.23-17 208.68-25.35 213.43-25.35 215.93-17Q217.13-12.85 217.98-9.78 218.83-6.7 219.08-5.7L219.08-5.7 219.28-4.7Q219.88-7.65 222.68-17L222.68-17 225.18-25.35 230.13-25.35 222.08 0 216.48 0 214.13-8.3Q213.08-12.1 212.3-15.03 211.53-17.95 211.28-19L211.28-19 211.08-20Q210.38-16.75 208.03-8.3L208.03-8.3 205.73 0ZM239.68 0L234.73 0 234.73-25.35 239.68-25.35 239.68 0ZM235-30.93Q234.13-31.8 234.13-33.1 234.13-34.4 235-35.3 235.88-36.2 237.18-36.2 238.48-36.2 239.38-35.3 240.28-34.4 240.28-33.1L240.28-33.1Q240.28-31.85 239.38-30.95 238.48-30.05 237.18-30.05 235.88-30.05 235-30.93ZM256.77-4.9L256.77-4.9Q259.37-4.9 261.3-6.93 263.22-8.95 263.22-12.6L263.22-12.6Q263.22-17.1 261.4-19.25 259.57-21.4 256.97-21.4L256.97-21.4Q254.02-21.4 252.32-19.07 250.62-16.75 250.62-12.95L250.62-12.95Q250.62-9 252.45-6.95 254.27-4.9 256.77-4.9ZM263.22-21.4L263.22-25.35 268.12-25.35 268.12-2.15Q268.12 3.7 264.8 6.68 261.47 9.65 256.27 9.65L256.27 9.65Q251.37 9.65 248.02 8L248.02 8 248.02 3.05Q251.22 5.15 255.77 5.15L255.77 5.15Q263.22 5.15 263.22-2.2L263.22-2.2 263.22-4.8Q260.77-0.7 255.87-0.7L255.87-0.7Q251.57-0.7 248.52-3.88 245.47-7.05 245.47-12.85L245.47-12.85Q245.47-18.45 248.32-22.08 251.17-25.7 255.87-25.7L255.87-25.7Q260.92-25.7 263.22-21.4L263.22-21.4ZM290.67-12.55L290.67-12.55Q290.77-8.7 293.02-6.23 295.27-3.75 299.32-3.75L299.32-3.75Q302.32-3.75 304.92-5.4L304.92-5.4 304.92-1Q302.47 0.5 298.67 0.5L298.67 0.5Q292.72 0.5 289.17-3.25 285.62-7 285.62-12.6L285.62-12.6Q285.62-18.05 289.19-21.93 292.77-25.8 298.87-25.8L298.87-25.8Q302.17-25.8 304.92-24.4L304.92-24.4 304.92-19.9Q302.47-21.45 299.37-21.45L299.37-21.45Q295.42-21.45 293.04-18.95 290.67-16.45 290.67-12.55ZM321.17 0.45L321.17 0.45Q315.57 0.45 312.37-3.2 309.17-6.85 309.17-12.45L309.17-12.45Q309.17-18.15 312.47-21.93 315.77-25.7 321.17-25.7L321.17-25.7Q326.97-25.7 330.12-22.03 333.27-18.35 333.27-12.65 333.27-6.95 330.04-3.25 326.82 0.45 321.17 0.45ZM321.12-21.55L321.12-21.55Q317.87-21.55 316.07-18.98 314.27-16.4 314.27-12.6L314.27-12.6Q314.27-8.85 316.12-6.28 317.97-3.7 321.17-3.7L321.17-3.7Q324.57-3.7 326.34-6.2 328.12-8.7 328.12-12.55L328.12-12.55Q328.12-16.5 326.42-19.03 324.72-21.55 321.12-21.55ZM349.01-3.95L349.01-3.95Q351.91-3.95 353.91-6.15 355.91-8.35 355.91-12.85L355.91-12.85Q355.91-17.2 353.84-19.3 351.76-21.4 349.16-21.4L349.16-21.4Q346.21-21.4 344.31-19.07 342.41-16.75 342.41-12.45L342.41-12.45Q342.41-8.65 344.29-6.3 346.16-3.95 349.01-3.95ZM355.91-21.5L355.91-35.35 360.86-35.35 360.86 0 355.91 0 355.91-3.85Q353.26 0.35 348.16 0.35L348.16 0.35Q343.16 0.35 340.26-3.43 337.36-7.2 337.36-12.55L337.36-12.55Q337.36-18.5 340.41-22.1 343.46-25.7 348.26-25.7L348.26-25.7Q353.21-25.7 355.91-21.5L355.91-21.5ZM371.26-14.5L383.51-14.5 383.51-15.4Q383.41-18.25 381.96-19.93 380.51-21.6 377.81-21.6L377.81-21.6Q375.31-21.6 373.51-19.78 371.71-17.95 371.26-14.5L371.26-14.5ZM386.66-5.75L386.66-5.75 386.66-1.35Q383.86 0.25 379.26 0.25L379.26 0.25Q373.36 0.25 369.86-3.3 366.36-6.85 366.36-12.6L366.36-12.6Q366.36-18.7 369.56-22.18 372.76-25.65 377.71-25.65L377.71-25.65Q382.56-25.65 385.41-22.63 388.26-19.6 388.26-13.9L388.26-13.9Q388.26-12.35 387.96-10.65L387.96-10.65 371.31-10.65Q371.81-7.35 374.11-5.6 376.41-3.85 379.91-3.85L379.91-3.85Q383.96-3.85 386.66-5.75ZM420.76-24.5L420.76-24.5 420.76-20.05Q418.31-21.5 414.46-21.5L414.46-21.5Q412.71-21.5 411.68-20.7 410.66-19.9 410.66-18.6L410.66-18.6Q410.66-18.25 410.73-17.93 410.81-17.6 411.01-17.28 411.21-16.95 411.38-16.73 411.56-16.5 411.96-16.25 412.36-16 412.58-15.83 412.81-15.65 413.33-15.4 413.86-15.15 414.11-15.03 414.36-14.9 414.98-14.63 415.61-14.35 415.86-14.25L415.86-14.25Q418.81-12.95 420.48-11.33 422.16-9.7 422.16-7L422.16-7Q422.16-3.6 419.76-1.68 417.36 0.25 413.26 0.25L413.26 0.25Q408.76 0.25 405.76-1.25L405.76-1.25 405.76-5.9Q409.26-3.75 413.01-3.75L413.01-3.75Q414.96-3.75 416.03-4.55 417.11-5.35 417.11-6.65L417.11-6.65Q417.11-7.75 416.26-8.63 415.41-9.5 414.53-9.93 413.66-10.35 411.56-11.25L411.56-11.25Q405.61-13.7 405.61-18.45L405.61-18.45Q405.61-21.8 408.11-23.7 410.61-25.6 414.36-25.6L414.36-25.6Q418.46-25.6 420.76-24.5ZM427.25-25.35L432.15-25.35 432.15-21Q434.4-25.7 440.05-25.7L440.05-25.7Q443.8-25.7 446-23.4 448.2-21.1 448.2-17.15L448.2-17.15 448.2 0 443.3 0 443.3-16Q443.3-18.65 441.98-20.05 440.65-21.45 438.45-21.45L438.45-21.45Q435.85-21.45 434-19.43 432.15-17.4 432.15-13.75L432.15-13.75 432.15 0 427.25 0 427.25-25.35ZM459.95 0L455 0 455-25.35 459.95-25.35 459.95 0ZM455.28-30.93Q454.4-31.8 454.4-33.1 454.4-34.4 455.28-35.3 456.15-36.2 457.45-36.2 458.75-36.2 459.65-35.3 460.55-34.4 460.55-33.1L460.55-33.1Q460.55-31.85 459.65-30.95 458.75-30.05 457.45-30.05 456.15-30.05 455.28-30.93ZM480.1-35.4L480.1-35.4 480.1-31.1Q478.95-31.6 477.7-31.6L477.7-31.6Q474.05-31.6 474.05-27.25L474.05-27.25 474.05-25.35 479.4-25.35 479.4-21.55 474.05-21.55 474.05 0 469.15 0 469.15-21.55 465.1-21.55 465.1-25.35 469.15-25.35 469.15-27.3Q469.15-31.25 471.27-33.52 473.4-35.8 477.25-35.8L477.25-35.8Q478.65-35.8 480.1-35.4ZM496.8-35.4L496.8-35.4 496.8-31.1Q495.65-31.6 494.4-31.6L494.4-31.6Q490.75-31.6 490.75-27.25L490.75-27.25 490.75-25.35 496.1-25.35 496.1-21.55 490.75-21.55 490.75 0 485.85 0 485.85-21.55 481.8-21.55 481.8-25.35 485.85-25.35 485.85-27.3Q485.85-31.25 487.97-33.52 490.1-35.8 493.95-35.8L493.95-35.8Q495.35-35.8 496.8-35.4ZM503.94-14.5L516.19-14.5 516.19-15.4Q516.09-18.25 514.64-19.93 513.19-21.6 510.49-21.6L510.49-21.6Q507.99-21.6 506.19-19.78 504.39-17.95 503.94-14.5L503.94-14.5ZM519.34-5.75L519.34-5.75 519.34-1.35Q516.54 0.25 511.94 0.25L511.94 0.25Q506.04 0.25 502.54-3.3 499.04-6.85 499.04-12.6L499.04-12.6Q499.04-18.7 502.24-22.18 505.44-25.65 510.39-25.65L510.39-25.65Q515.24-25.65 518.09-22.63 520.94-19.6 520.94-13.9L520.94-13.9Q520.94-12.35 520.64-10.65L520.64-10.65 503.99-10.65Q504.49-7.35 506.79-5.6 509.09-3.85 512.59-3.85L512.59-3.85Q516.64-3.85 519.34-5.75ZM526.69-25.35L531.59-25.35 531.59-20.9Q533.44-25.6 538.24-25.6L538.24-25.6Q538.94-25.6 539.79-25.45L539.79-25.45 539.79-20.65Q538.74-21.1 537.44-21.1L537.44-21.1Q534.89-21.1 533.24-18.85 531.59-16.6 531.59-13.5L531.59-13.5 531.59 0 526.69 0 526.69-25.35Z" opacity="1" transform="matrix(1,0,0,1,0,0)" fill="#ffffff" class="slogan-text-1" data-fill-palette-color="secondary" id="text-1"></path></svg></g></svg></g></svg></g></svg></g><g></g></svg></g><defs></defs></svg><rect width="223.25513891213387" height="84.37694980052166" fill="none" stroke="none" visibility="hidden"></rect></g></svg></g></svg>
